<?xml version="1.0" encoding="iso-8859-1"?>
<!-- Generator: Adobe Illustrator 19.0.0, SVG Export Plug-In . SVG Version: 6.00 Build 0)  -->
<svg version="1.1" id="Capa_1" xmlns="http://www.w3.org/2000/svg" xmlns:xlink="http://www.w3.org/1999/xlink" x="0px" y="0px"
	 viewBox="0 0 512 512" style="enable-background:new 0 0 512 512;" xml:space="preserve">
<path style="fill:#F7C2AD;" d="M41.464,293.299v66.663c0,21.122,17.123,38.245,38.245,38.245l0,0
	c21.122,0,38.245-17.123,38.245-38.245l0,0c0-24.336-10.366-47.519-28.502-63.746l-18.165-16.252
	C59.761,269.652,41.464,277.833,41.464,293.299z"/>
<path style="opacity:0.2;fill:#E86478;enable-background:new    ;" d="M79.766,377.16c-12.688,0-23.011-10.323-23.011-23.011
	v-30.212c0-5.333,3.024-9.999,7.893-12.175c4.866-2.175,10.361-1.32,14.336,2.236l9.733,8.709
	c8.935,7.994,14.059,19.454,14.059,31.442C102.776,366.837,92.454,377.16,79.766,377.16z M71.755,327.657v26.492
	c0,4.417,3.594,8.011,8.011,8.011s8.011-3.594,8.011-8.011c0-7.727-3.303-15.112-9.061-20.264L71.755,327.657z"/>
<path style="fill:#F7C2AD;" d="M470.536,293.299v66.663c0,21.122-17.123,38.245-38.245,38.245l0,0
	c-21.122,0-38.245-17.123-38.245-38.245l0,0c0-24.336,10.366-47.519,28.502-63.746l18.164-16.252
	C452.239,269.652,470.536,277.833,470.536,293.299z"/>
<path style="opacity:0.2;fill:#E86478;enable-background:new    ;" d="M432.234,377.16c-12.689,0-23.011-10.323-23.011-23.011
	c0-11.989,5.124-23.449,14.059-31.443l9.733-8.709c3.974-3.557,9.468-4.411,14.336-2.236c4.869,2.177,7.893,6.842,7.893,12.175
	v30.212C455.245,366.837,444.923,377.16,432.234,377.16z M440.245,327.657l-6.961,6.228c-5.758,5.152-9.061,12.538-9.061,20.264
	c0,4.418,3.594,8.011,8.011,8.011s8.011-3.594,8.011-8.011L440.245,327.657L440.245,327.657z"/>
<path style="opacity:0.1;enable-background:new    ;" d="M89.451,296.217l-7.293-6.525c-5.261,16.423-8.097,33.875-8.097,51.966
	c0,19.71,3.363,38.663,9.564,56.351c19.282-1.962,34.327-18.247,34.327-38.046l0,0C117.953,335.627,107.588,312.443,89.451,296.217z
	"/>
<path style="opacity:0.1;enable-background:new    ;" d="M429.841,289.692l-7.292,6.525c-18.136,16.227-28.502,39.41-28.502,63.746
	l0,0c0,19.799,15.046,36.085,34.327,38.046c6.201-17.688,9.564-36.64,9.564-56.351C437.938,323.566,435.102,306.115,429.841,289.692
	z"/>
<ellipse style="fill:#F7C2AD;" cx="256" cy="341.66" rx="168.67" ry="162.84"/>
<path style="opacity:0.05;enable-background:new    ;" d="M274.204,486.296c-93.152,0-168.666-72.907-168.666-162.842
	c0-39.352,14.458-75.444,38.525-103.595c-34.796,29.83-56.73,73.338-56.73,121.799C87.334,431.593,162.848,504.5,256,504.5
	c52.392,0,99.205-23.063,130.141-59.248C356.361,470.782,317.161,486.296,274.204,486.296z"/>
<g>
	<path style="fill:#AA715F;" d="M121.56,229.136c-12.096,4.515-31.938,45.908-37.355,76.385
		c-2.066,11.626,9.128,21.221,20.314,17.44c43.486-14.697,107.124-54.159,127.026-93.825H121.56z"/>
	<path style="fill:#AA715F;" d="M390.44,229.136c12.096,4.515,31.938,45.908,37.355,76.385c2.066,11.626-9.128,21.221-20.314,17.44
		c-43.486-14.697-107.124-54.159-127.026-93.825H390.44z"/>
</g>
<path style="opacity:0.1;enable-background:new    ;" d="M390.44,229.136h-12.52c-30.708-31.006-73.977-50.32-121.92-50.32
	s-91.211,19.314-121.92,50.32h-12.52c-8.426,3.145-20.607,24.188-29.056,46.968c0.273,0.016,0.546,0.029,0.825,0.029h325.342
	c0.279,0,0.552-0.013,0.825-0.029C411.046,253.324,398.866,232.282,390.44,229.136z"/>
<path style="fill:#61C6AD;" d="M240.324,15.718L82.146,244.445c-6.237,9.019,0.218,21.331,11.183,21.331h325.342
	c10.965,0,17.42-12.312,11.183-21.331L271.676,15.718C264.098,4.761,247.902,4.761,240.324,15.718z"/>
<polygon style="fill:#485458;" points="372.379,161.335 139.621,161.335 106.145,209.743 405.855,209.743 "/>
<path style="fill:#F8CA4F;" d="M283.258,232.279h-54.516c-15.953,0-28.932-12.979-28.932-28.933v-35.615
	c0-15.953,12.979-28.932,28.932-28.932h54.516c15.953,0,28.932,12.979,28.932,28.932v35.615
	C312.19,219.3,299.211,232.279,283.258,232.279z M229.471,202.618h53.059V168.46h-53.059L229.471,202.618L229.471,202.618z"/>
<path d="M229.471,210.118h53.059c4.143,0,7.5-3.358,7.5-7.5V168.46c0-4.142-3.357-7.5-7.5-7.5h-53.059c-4.143,0-7.5,3.358-7.5,7.5
	v34.158C221.971,206.76,225.328,210.118,229.471,210.118z M236.971,175.96h38.059v19.158h-38.059L236.971,175.96L236.971,175.96z
	 M177.006,328.815c-4.143,0-7.5,3.358-7.5,7.5v13.112c0,4.142,3.357,7.5,7.5,7.5s7.5-3.358,7.5-7.5v-13.112
	C184.506,332.173,181.148,328.815,177.006,328.815z M334.993,328.815c-4.143,0-7.5,3.358-7.5,7.5v13.112c0,4.142,3.357,7.5,7.5,7.5
	s7.5-3.358,7.5-7.5v-13.112C342.493,332.173,339.137,328.815,334.993,328.815z M463.009,270.118
	c-9.268-4.144-19.729-2.514-27.297,4.257l-6.755,6.044c-0.932-2.798-1.935-5.613-3.007-8.437c4.832-1.771,8.927-5.279,11.406-10.007
	c3.654-6.971,3.145-15.322-1.332-21.796L277.845,11.452C272.885,4.281,264.719,0,256,0s-16.885,4.281-21.845,11.452l-25.996,37.59
	c-2.355,3.407-1.504,8.079,1.903,10.435c3.406,2.355,8.078,1.504,10.435-1.902l25.996-37.59C248.684,16.817,252.148,15,256,15
	c3.852,0,7.316,1.817,9.507,4.984l92.566,133.851H316.93c-5.474-13.214-18.503-22.536-33.672-22.536h-54.516
	c-15.17,0-28.199,9.322-33.672,22.536h-41.143l46.385-67.073c2.355-3.407,1.504-8.079-1.903-10.435
	c-3.406-2.356-8.077-1.504-10.435,1.902l-54.568,78.905c-0.003,0.004-0.005,0.007-0.008,0.011l-33.47,48.397
	c-0.002,0.003-0.004,0.006-0.006,0.009L75.977,240.18c-4.477,6.474-4.986,14.825-1.332,21.796
	c2.479,4.728,6.573,8.236,11.406,10.007c-1.072,2.824-2.075,5.639-3.007,8.437l-6.755-6.044c-7.567-6.771-18.025-8.401-27.297-4.257
	c-9.27,4.145-15.027,13.027-15.027,23.181v66.663c0,25.224,20.521,45.745,45.745,45.745c4.231,0,8.359-0.573,12.348-1.693
	C117.845,467.187,181.612,512,256,512s138.155-44.813,163.943-107.986c3.989,1.119,8.117,1.693,12.348,1.693
	c25.224,0,45.745-20.521,45.745-45.745v-66.663C478.036,283.146,472.278,274.263,463.009,270.118z M319.69,168.835h48.756
	l23.103,33.407H319.69V168.835z M207.31,167.731c0-11.818,9.614-21.432,21.433-21.432h54.516c11.818,0,21.433,9.614,21.433,21.432
	v35.615c0,11.818-9.614,21.433-21.433,21.433h-54.516c-11.818,0-21.433-9.615-21.433-21.433L207.31,167.731L207.31,167.731z
	 M143.554,168.835h48.756v33.407h-71.859L143.554,168.835z M79.709,390.707c-16.953,0-30.745-13.792-30.745-30.745v-66.663
	c0-4.219,2.299-7.766,6.15-9.487c3.851-1.722,8.026-1.071,11.172,1.742l12.171,10.89c-0.627,2.655-1.191,5.263-1.636,7.764
	c-1.137,6.395,0.427,12.749,4.211,17.784c-0.78,6.54-1.198,13.137-1.198,19.666c0,16.724,2.517,32.888,7.184,48.17
	C84.647,390.407,82.206,390.707,79.709,390.707z M94.004,314.08c-0.04-0.038-0.078-0.078-0.119-0.115
	c-1.139-1.117-2.938-3.516-2.295-7.132c1.794-10.096,5.328-21.858,10.05-33.557h79.172c-26.354,19.881-57.034,35.259-78.694,42.58
	c-3.929,1.327-6.798-0.632-7.85-1.537C94.188,314.251,94.098,314.169,94.004,314.08z M256,497
	c-88.867,0-161.166-69.686-161.166-155.342c0-3.572,0.134-7.169,0.392-10.764c1.395,0.265,2.813,0.408,4.242,0.408
	c2.486,0,4.999-0.407,7.453-1.236c32.87-11.109,70.871-33.246,97.661-56.79h102.836c26.791,23.545,64.792,45.681,97.661,56.79
	c2.454,0.83,4.967,1.236,7.453,1.236c1.429,0,2.847-0.143,4.242-0.409c0.258,3.595,0.392,7.192,0.392,10.764
	C417.165,427.314,344.867,497,256,497z M424.07,255.01c-0.515,0.982-2.071,3.266-5.399,3.266h-3.318c-0.026,0-0.052,0-0.079,0
	h-19.326c-4.143,0-7.5,3.358-7.5,7.5s3.357,7.5,7.5,7.5h14.411c4.721,11.696,8.255,23.458,10.051,33.557
	c0.644,3.619-1.158,6.019-2.298,7.135c-0.035,0.031-0.067,0.066-0.102,0.098c-0.1,0.094-0.195,0.182-0.28,0.255
	c-1.051,0.904-3.917,2.864-7.849,1.536c-21.661-7.321-52.34-22.699-78.694-42.58h26.76c4.143,0,7.5-3.358,7.5-7.5
	s-3.357-7.5-7.5-7.5H96.723c-0.025,0-0.051,0-0.076,0h-3.318c-3.328,0-4.885-2.284-5.399-3.266
	c-0.516-0.982-1.509-3.562,0.385-6.299l21.763-31.469h84.993c5.474,13.214,18.502,22.537,33.672,22.537h54.516
	c15.17,0,28.198-9.322,33.672-22.537h84.993l21.762,31.468C425.579,251.449,424.586,254.028,424.07,255.01z M463.036,359.962
	c0,16.953-13.792,30.745-30.745,30.745c-2.497,0-4.938-0.3-7.31-0.879c4.667-15.281,7.185-31.445,7.185-48.17
	c0-6.529-0.418-13.126-1.198-19.666c3.784-5.034,5.348-11.388,4.211-17.784c-0.445-2.501-1.009-5.109-1.636-7.764l12.171-10.89
	c3.143-2.812,7.32-3.464,11.172-1.742s6.15,5.269,6.15,9.487V359.962z M281.754,344.354c-3.125-2.721-7.862-2.396-10.582,0.727
	c-3.83,4.395-9.359,6.915-15.172,6.915s-11.342-2.521-15.172-6.915c-2.723-3.124-7.46-3.448-10.582-0.727s-3.448,7.459-0.727,10.582
	c6.679,7.665,16.331,12.061,26.48,12.061c10.149,0,19.802-4.396,26.48-12.061C285.202,351.814,284.876,347.076,281.754,344.354z"/>
<g>
</g>
<g>
</g>
<g>
</g>
<g>
</g>
<g>
</g>
<g>
</g>
<g>
</g>
<g>
</g>
<g>
</g>
<g>
</g>
<g>
</g>
<g>
</g>
<g>
</g>
<g>
</g>
<g>
</g>
</svg>
