<?xml version="1.0" encoding="iso-8859-1"?>
<!-- Generator: Adobe Illustrator 19.0.0, SVG Export Plug-In . SVG Version: 6.00 Build 0)  -->
<svg version="1.1" id="Capa_1" xmlns="http://www.w3.org/2000/svg" xmlns:xlink="http://www.w3.org/1999/xlink" x="0px" y="0px"
	 viewBox="0 0 512 512" style="enable-background:new 0 0 512 512;" xml:space="preserve">
<g>
	<g>
		<path d="M316.975,436.493H209.342c-4.142,0-7.5,3.358-7.5,7.5s3.358,7.5,7.5,7.5h107.633c4.142,0,7.5-3.358,7.5-7.5
			S321.117,436.493,316.975,436.493z"/>
	</g>
</g>
<g>
	<g>
		<path d="M316.975,76.366H169.154c-4.142,0-7.5,3.358-7.5,7.5s3.358,7.5,7.5,7.5h147.821c4.142,0,7.5-3.358,7.5-7.5
			S321.117,76.366,316.975,76.366z"/>
	</g>
</g>
<g>
	<g>
		<path d="M368.581,221.508c-17.315-17.315-40.336-26.851-64.823-26.851c-24.488,0-47.509,9.536-64.824,26.851
			c-35.744,35.743-35.744,93.903,0,129.648c17.315,17.315,40.336,26.851,64.824,26.851s47.509-9.536,64.823-26.851
			c17.315-17.315,26.851-40.336,26.851-64.824C395.432,261.845,385.896,238.823,368.581,221.508z M357.975,340.55
			c-14.483,14.482-33.736,22.458-54.217,22.458s-39.735-7.975-54.217-22.458c-29.895-29.896-29.895-78.539,0-108.434
			c14.482-14.483,33.736-22.458,54.217-22.458c20.48,0,39.734,7.975,54.217,22.458c14.482,14.482,22.458,33.736,22.458,54.217
			C380.432,306.813,372.457,326.068,357.975,340.55z"/>
	</g>
</g>
<g>
	<g>
		<path d="M277.006,315.908l-6.057-6.057c-2.929-2.929-7.678-2.929-10.606,0c-2.929,2.929-2.929,7.678,0,10.606l6.057,6.057
			c1.464,1.464,3.384,2.197,5.303,2.197s3.839-0.732,5.303-2.197C279.935,323.585,279.935,318.836,277.006,315.908z"/>
	</g>
</g>
<g>
	<g>
		<path d="M343.938,248.974l-6.057-6.057c-2.929-2.929-7.678-2.929-10.606,0c-2.929,2.929-2.929,7.678,0,10.606l6.057,6.057
			c1.464,1.464,3.384,2.197,5.303,2.197c1.919,0,3.839-0.732,5.303-2.197C346.867,256.652,346.867,251.903,343.938,248.974z"/>
	</g>
</g>
<g>
	<g>
		<path d="M320.491,278.56c-0.277-4.132-3.848-7.253-7.985-6.981c-4.133,0.277-7.258,3.853-6.981,7.985
			c0.147,2.193-0.737,4.42-2.425,6.109c-1.688,1.689-3.911,2.578-6.109,2.425c-4.13-0.271-7.708,2.849-7.985,6.981
			c-0.278,4.133,2.847,7.709,6.98,7.986c0.493,0.033,0.985,0.049,1.477,0.049c6.003,0,11.853-2.445,16.244-6.835
			C318.455,291.531,320.928,285.072,320.491,278.56z"/>
	</g>
</g>
<g>
	<g>
		<path d="M511.253,440.112c-2.789-14.258-13.059-28.562-30.526-42.511c-13.627-10.884-31.46-21.314-51.828-30.356
			c1.244-10.292-1.59-19.468-8.073-25.951c-0.045-0.045-0.094-0.085-0.139-0.129c22.381-47.849,13.846-106.695-25.61-146.151
			c-6.452-6.453-13.51-12.136-21.028-17.016V62.329c0-28.146-22.899-51.045-51.045-51.045c0,0-201.009,0-201.106,0
			c-1.967,0-3.906,0.814-5.303,2.196c0,0-114.37,114.37-114.409,114.41C0.841,129.295,0,131.227,0,133.183v257.84
			c0,4.142,3.358,7.5,7.5,7.5s7.5-3.358,7.5-7.5v-250.34h78.342c19.881,0,36.055-16.175,36.055-36.055V26.286h193.606
			c19.875,0,36.044,16.17,36.044,36.044v107.254c-15.793-7.503-32.858-11.654-50.378-12.294c-4.856-0.183-9.711-0.002-14.562,0.26
			c-4.131,0.308-7.23,3.906-6.922,8.036c0.301,4.042,3.945,7.23,8.037,6.923c5.283-0.393,10.588-0.409,15.876-0.078
			c27.481,1.722,53.912,13.728,73.371,33.187c29.229,29.229,40.354,73.112,28.811,112.779
			c-6.523,22.417-20.029,42.495-38.241,57.092c-0.058,0.046-0.116,0.093-0.174,0.139c-20.075,16.021-45.432,24.847-71.109,24.847
			c-30.144,0-59.357-12.206-80.712-33.432c-43.987-43.721-43.759-117.667,0-161.426c11.384-11.384,24.729-20.069,39.664-25.813
			c3.866-1.487,5.795-5.826,4.308-9.692c-0.372-0.969-0.924-1.815-1.603-2.518c-2.029-2.104-5.196-2.911-8.096-1.796
			c-16.897,6.5-31.997,16.329-44.88,29.212c-0.287,0.287-0.565,0.581-0.849,0.87H56.538c-4.142,0-7.5,3.358-7.5,7.5
			s3.358,7.5,7.5,7.5h142.38c-8.305,11.489-14.604,24.172-18.704,37.616H56.538c-4.142,0-7.5,3.358-7.5,7.5s3.358,7.5,7.5,7.5
			h120.078c-1.324,7.462-2.005,15.095-2.005,22.832c0,4.978,0.289,9.911,0.841,14.786H56.538c-4.142,0-7.5,3.358-7.5,7.5
			s3.358,7.5,7.5,7.5h121.515c3.126,13.303,8.345,25.974,15.496,37.616H56.538c-4.142,0-7.5,3.358-7.5,7.5s3.358,7.5,7.5,7.5
			h147.773c2.557,3.075,5.264,6.053,8.127,8.916c37.637,37.637,98.016,48.299,146.196,25.658c0.03,0.03,0.056,0.062,0.086,0.092
			c0.107,0.107,0.22,0.207,0.329,0.312v45.958c0,19.876-16.17,36.044-36.044,36.044H51.045
			c-19.875,0.004-36.044-16.166-36.044-36.04v-28.647c0-4.142-3.358-7.5-7.5-7.5s-7.5,3.358-7.5,7.5v28.647
			c0,28.147,22.899,51.045,51.045,51.045h271.96c28.146,0,51.045-22.899,51.045-51.045v-38.429c1.943,0.344,3.964,0.52,6.056,0.52
			c1.516,0,3.041-0.095,4.568-0.276c9.907,22.327,21.392,41.436,33.406,55.516c15.622,18.307,31.514,27.59,47.242,27.592
			c11.433,0,22.189-4.958,31.964-14.734C512.316,464.83,513.177,449.949,511.253,440.112z M114.398,104.627
			c0,11.609-9.445,21.055-21.055,21.055H25.607l88.791-88.79V104.627z M380.103,396.762c-1.753,0-3.915-0.222-6.055-1.002v-1.048
			c3.564-2.321,10.489-7.609,10.549-7.657c3.661-2.938,7.16-6.083,10.478-9.403c6.303-6.303,11.97-13.271,16.841-20.737
			c0.284-0.435,0.576-0.865,0.855-1.304c1.354,2.968,1.754,6.637,1.125,10.71c-1.155,7.467-5.29,14.284-10.579,19.573
			C397.262,391.95,388.874,396.762,380.103,396.762z M486.678,469.253c-6.958,6.957-13.943,10.339-21.36,10.339
			c-20.945-0.002-45.971-27.569-66.174-72.47c0.636-0.31,1.267-0.635,1.896-0.975c4.733-2.557,9.085-5.843,12.886-9.648
			c4.255-4.26,7.861-9.184,10.522-14.591c0.031-0.063,0.066-0.125,0.097-0.189c40.796,18.404,68.128,41.543,71.987,61.269
			C498.337,452.227,495.114,460.817,486.678,469.253z"/>
	</g>
</g>
<g>
</g>
<g>
</g>
<g>
</g>
<g>
</g>
<g>
</g>
<g>
</g>
<g>
</g>
<g>
</g>
<g>
</g>
<g>
</g>
<g>
</g>
<g>
</g>
<g>
</g>
<g>
</g>
<g>
</g>
</svg>
